<?xml version="1.0" encoding="utf-8"?>
<!-- Generator: Adobe Illustrator 18.1.1, SVG Export Plug-In . SVG Version: 6.00 Build 0)  -->
<!DOCTYPE svg PUBLIC "-//W3C//DTD SVG 1.1//EN" "http://www.w3.org/Graphics/SVG/1.1/DTD/svg11.dtd">
<svg version="1.1" id="Layer_1" xmlns="http://www.w3.org/2000/svg" xmlns:xlink="http://www.w3.org/1999/xlink" x="0px" y="0px"
	 width="100px" height="100px" viewBox="-479 281 100 100" style="enable-background:new -479 281 100 100;" xml:space="preserve">
<style type="text/css">
	.st0{stroke:#000000;stroke-miterlimit:10;}
</style>
<g>
	<path class="st0" d="M-397,323.8c1,4,1.6,8.2,1.6,12.7c0,0.5,0,1,0,1.5l5.2,2l4.3-3.6l3.3,3.9l-6.4,5.3l-6.7-2.7
		c-0.8,5.9-2.6,11.4-5.2,16.2l0.9-1.3l5,2.9l4.8-2.9l2.7,4.3l-7.2,4.3l-7.9-4.6c-6.2,9.6-15.7,15.7-26.5,15.7
		c-10.7,0-20.3-6.1-26.4-15.7l-7.8,4.5l-7.2-4.3l2.7-4.3l4.8,2.9l5-2.9l0.4,0.5c-2.4-4.6-4-9.8-4.8-15.4l-6.5,2.6l-6.4-5.3l3.3-3.9
		l4.3,3.6l5-1.9c0-0.5,0-1.1,0-1.6c0-4.4,0.6-8.7,1.6-12.7l-8.4-0.3l-3.7-7.5l4.6-2.2l2.4,5l5.8,0.3l0.1,1.7
		c3.5-10.3,10.3-18.5,18.8-22.6c0.2-3.2,2.8-5.7,6-5.7h14.1c3.3,0,6.1,2.7,6.1,6c0,0.1,0,0.3,0,0.4c8,4.4,14.3,12.5,17.6,22.5
		l0.1-2.3l5.8-0.3l2.4-5l4.6,2.2l-3.7,7.5L-397,323.8z"/>
	<polygon class="st0" points="-412.1,287.1 -412.7,288.9 -413.7,289.3 -415.9,289.9 -417.7,291 -420.2,292.4 -420.2,291 -417.4,289 
		-415.3,288.3 -413.5,287.1 -412.4,285 -410.4,284.3 -410.9,286.3 	"/>
	<polygon class="st0" points="-440.9,289.9 -443.1,289.3 -444.1,288.9 -444.8,287.1 -445.9,286.3 -446.4,284.3 -444.4,285 
		-443.3,287.1 -441.5,288.3 -439.4,289 -436.6,291 -436.6,292.4 -439.1,291 	"/>
</g>
</svg>
