<svg xmlns="http://www.w3.org/2000/svg" width="100" height="100" viewBox="-479 281 100 100" enable-background="new -479 281 100 100"><style type="text/css">.st0{stroke:#000000;stroke-miterlimit:10;fill:#512100;}</style><path class="st0" d="M-397 323.8c1 4 1.6 8.2 1.6 12.7v1.5l5.2 2 4.3-3.6 3.3 3.9-6.4 5.3-6.7-2.7c-.8 5.9-2.6 11.4-5.2 16.2l.9-1.3 5 2.9 4.8-2.9 2.7 4.3-7.2 4.3-7.9-4.6c-6.2 9.6-15.7 15.7-26.5 15.7-10.7 0-20.3-6.1-26.4-15.7l-7.8 4.5-7.2-4.3 2.7-4.3 4.8 2.9 5-2.9.4.5c-2.4-4.6-4-9.8-4.8-15.4l-6.5 2.6-6.4-5.3 3.3-3.9 4.3 3.6 5-1.9v-1.6c0-4.4.6-8.7 1.6-12.7l-8.4-.3-3.7-7.5 4.6-2.2 2.4 5 5.8.3.1 1.7c3.5-10.3 10.3-18.5 18.8-22.6.2-3.2 2.8-5.7 6-5.7h14.1c3.3 0 6.1 2.7 6.1 6v.4c8 4.4 14.3 12.5 17.6 22.5l.1-2.3 5.8-.3 2.4-5 4.6 2.2-3.7 7.5-8.5.5zM-412.1 287.1l-.6 1.8-1 .4-2.2.6-1.8 1.1-2.5 1.4v-1.4l2.8-2 2.1-.7 1.8-1.2 1.1-2.1 2-.7-.5 2zM-440.9 289.9l-2.2-.6-1-.4-.7-1.8-1.1-.8-.5-2 2 .7 1.1 2.1 1.8 1.2 2.1.7 2.8 2v1.4l-2.5-1.4z"/></svg>
